<svg version="1.1" id="Layer_1" xmlns="http://www.w3.org/2000/svg" xmlns:xlink="http://www.w3.org/1999/xlink" x="0px" y="0px"
	 width="100%" viewBox="0 0 500 500" enable-background="new 0 0 500 500" xml:space="preserve">
<path fill="#FEDE5A" opacity="1.000000" stroke="none" 
	d="
M1.000000,180.000000 
	C1.000000,120.407982 1.000000,60.815964 1.000000,1.000000 
	C57.687363,1.000000 114.375023,1.000000 171.568085,1.371041 
	C173.851791,8.046829 177.640396,11.266887 182.536346,10.634824 
	C187.730850,9.964217 190.639374,6.653225 191.000000,1.000000 
	C229.687561,1.000000 268.375122,1.000000 307.684204,1.328526 
	C310.153046,7.851960 313.506653,10.867105 318.417694,10.748478 
	C323.057098,10.636413 326.248230,7.389934 328.000000,1.000000 
	C385.594727,1.000000 443.189423,1.000000 501.000000,1.000000 
	C501.000000,60.020718 501.000000,119.041702 500.634583,178.479523 
	C496.391235,180.426880 494.675629,183.405594 494.796967,187.436661 
	C494.923370,191.635284 496.832733,194.666855 501.000000,196.000000 
	C501.000000,235.354233 501.000000,274.708466 500.640198,314.528015 
	C496.107635,316.889679 494.304779,320.230743 494.890137,324.657501 
	C495.365479,328.252563 496.694519,331.445862 501.000000,332.000000 
	C501.000000,388.303925 501.000000,444.607880 501.000000,500.955902 
	C334.449707,500.955902 167.899384,500.955902 1.000000,500.955902 
	C1.000000,444.646240 1.000000,388.291779 1.345031,331.371033 
	C6.626493,325.105896 6.404488,320.342926 1.000000,316.000000 
	C1.000000,275.979095 1.000000,235.958206 1.323962,195.324219 
	C6.616995,189.226486 6.383717,183.929916 1.000000,180.000000 
M363.361145,43.079872 
	C353.046997,38.425522 342.993622,33.041637 332.372650,29.245781 
	C291.047516,14.476462 248.712479,10.887539 205.450668,18.975567 
	C156.479950,28.130907 114.086784,50.184212 79.435760,85.734024 
	C26.061800,140.492416 2.497381,206.503113 11.107193,282.665314 
	C19.318901,355.305878 54.624802,412.738861 114.724747,454.088348 
	C165.695465,489.156738 222.745926,502.792358 283.871857,493.361328 
	C366.350861,480.635742 427.660645,436.459778 465.387848,361.907837 
	C494.951233,303.488159 498.725922,242.108780 478.285645,179.932922 
	C458.415009,119.489922 419.537750,74.334915 363.361145,43.079872 
M468.704041,121.270424 
	C467.984558,127.207329 470.545105,131.647614 475.406647,132.893494 
	C480.390259,134.170639 485.325043,131.594299 487.025848,126.827309 
	C488.723846,122.068176 486.513824,117.034729 481.778229,114.875328 
	C476.736115,112.576141 471.890320,114.710121 468.704041,121.270424 
M432.065948,60.430233 
	C427.854950,62.554672 426.084503,66.007187 426.667877,70.631882 
	C427.213409,74.956352 430.027710,78.124214 433.957275,78.318176 
	C437.140839,78.475327 441.041870,76.948074 443.542877,74.867523 
	C446.753937,72.196281 446.524170,67.966637 444.406982,64.340805 
	C441.754852,59.798866 437.583557,58.940067 432.065948,60.430233 
M468.771240,389.603241 
	C471.388092,395.251770 474.892334,397.521515 479.390717,396.481659 
	C484.886108,395.211334 488.304474,390.585144 487.421051,385.613892 
	C486.501984,380.442078 482.215637,377.110199 477.071442,377.568878 
	C471.545105,378.061646 468.262726,382.425446 468.771240,389.603241 
M429.212830,448.359680 
	C433.013580,451.805359 437.292938,452.322113 441.484863,449.531372 
	C444.866882,447.279816 446.438019,443.779297 445.489075,439.591797 
	C444.551117,435.452759 441.831787,432.268005 437.731415,432.428436 
	C434.505066,432.554657 430.585114,434.098419 428.370270,436.372925 
	C425.180206,439.648895 426.021667,444.022736 429.212830,448.359680 
M28.154139,130.820129 
	C32.598995,125.475273 32.256786,119.147942 27.339247,115.753090 
	C23.300652,112.965042 18.041737,113.569908 14.722458,117.204247 
	C11.572008,120.653748 11.343955,125.885277 14.185355,129.525330 
	C17.337814,133.563873 22.089199,134.184357 28.154139,130.820129 
M23.745512,377.782562 
	C17.013592,377.422729 12.530069,380.816589 12.176058,386.540222 
	C11.866470,391.545593 16.494961,396.454102 21.815226,396.762512 
	C26.441553,397.030731 31.090916,392.735840 31.343506,387.713959 
	C31.592550,382.762634 29.100597,379.557465 23.745512,377.782562 
M73.182732,68.593163 
	C72.930794,64.323471 70.803528,61.412777 66.740456,60.095989 
	C61.274261,58.324463 55.679661,61.426529 54.305210,66.870430 
	C52.962368,72.189133 56.609116,77.645927 62.140591,78.763977 
	C66.256584,79.595917 73.638794,75.921288 73.182732,68.593163 
M127.087402,23.659821 
	C124.808411,18.976381 120.763046,16.660202 116.071579,18.294609 
	C113.261955,19.273418 110.408195,22.341169 109.204407,25.164942 
	C107.623703,28.872854 109.198860,32.712814 112.766586,35.199677 
	C116.093102,37.518410 119.719101,37.832527 123.072113,35.595139 
	C127.004028,32.971470 128.828903,29.222969 127.087402,23.659821 
M390.001251,22.848259 
	C387.664093,18.646162 383.699677,16.642887 379.543091,18.306337 
	C376.592285,19.487240 373.114838,22.701998 372.545746,25.544247 
	C371.974365,28.397797 374.003693,32.553246 376.182709,34.980629 
	C378.970062,38.085655 383.206146,37.764877 386.731750,35.388317 
	C391.027283,32.492748 392.067413,28.408981 390.001251,22.848259 
M73.154572,440.727722 
	C72.614799,435.707367 69.655602,432.837311 64.840111,432.177490 
	C60.697723,431.609863 57.263542,433.286041 55.225388,437.046570 
	C53.186207,440.808990 53.738388,444.479828 56.386292,447.775665 
	C58.965672,450.986237 62.507256,451.918610 66.276566,450.830200 
	C70.738174,449.541901 73.089561,446.281769 73.154572,440.727722 
M387.389984,491.022308 
	C390.969940,488.238770 392.351379,484.197418 390.511383,480.465393 
	C389.172485,477.749664 385.980499,475.183411 383.058777,474.196747 
	C378.987793,472.821991 375.213623,474.893921 373.141876,478.854095 
	C371.107147,482.743591 371.467377,486.652954 374.566528,489.862640 
	C378.103119,493.525421 382.283447,494.007996 387.389984,491.022308 
M110.760262,477.451172 
	C107.943916,481.467773 107.794327,485.601929 110.865799,489.421631 
	C113.633591,492.863739 117.388771,493.943695 121.625198,492.291229 
	C125.376534,490.828003 127.648499,487.987396 127.811096,483.971008 
	C127.969284,480.063812 126.432930,476.737457 122.718185,474.947449 
	C118.523415,472.926178 114.640045,473.551971 110.760262,477.451172 
z"/>
<path fill="#74D0E8" opacity="1.000000" stroke="none" 
	d="
M327.531616,1.000000 
	C326.248230,7.389934 323.057098,10.636413 318.417694,10.748478 
	C313.506653,10.867105 310.153046,7.851960 308.152893,1.328526 
	C314.354401,1.000000 320.708801,1.000000 327.531616,1.000000 
z"/>
<path fill="#74D0E8" opacity="1.000000" stroke="none" 
	d="
M190.531723,1.000000 
	C190.639374,6.653225 187.730850,9.964217 182.536346,10.634824 
	C177.640396,11.266887 173.851791,8.046829 172.036743,1.371041 
	C178.021149,1.000000 184.042297,1.000000 190.531723,1.000000 
z"/>
<path fill="#72D0EA" opacity="1.000000" stroke="none" 
	d="
M501.000000,331.532410 
	C496.694519,331.445862 495.365479,328.252563 494.890137,324.657501 
	C494.304779,320.230743 496.107635,316.889679 500.640198,314.996643 
	C501.000000,320.354919 501.000000,325.709869 501.000000,331.532410 
z"/>
<path fill="#73D0E9" opacity="1.000000" stroke="none" 
	d="
M501.000000,195.532394 
	C496.832733,194.666855 494.923370,191.635284 494.796967,187.436661 
	C494.675629,183.405594 496.391235,180.426880 500.634583,178.948181 
	C501.000000,184.354935 501.000000,189.709854 501.000000,195.532394 
z"/>
<path fill="#75D0E7" opacity="1.000000" stroke="none" 
	d="
M1.000000,180.466125 
	C6.383717,183.929916 6.616995,189.226486 1.323962,194.855560 
	C1.000000,190.310745 1.000000,185.621490 1.000000,180.466125 
z"/>
<path fill="#74D0E8" opacity="1.000000" stroke="none" 
	d="
M1.000000,316.466125 
	C6.404488,320.342926 6.626493,325.105896 1.345031,330.902374 
	C1.000000,326.310760 1.000000,321.621490 1.000000,316.466125 
z"/>
<path fill="#71CFEA" opacity="1.000000" stroke="none" 
	d="
M363.692413,43.246185 
	C419.537750,74.334915 458.415009,119.489922 478.285645,179.932922 
	C498.725922,242.108780 494.951233,303.488159 465.387848,361.907837 
	C427.660645,436.459778 366.350861,480.635742 283.871857,493.361328 
	C222.745926,502.792358 165.695465,489.156738 114.724747,454.088348 
	C54.624802,412.738861 19.318901,355.305878 11.107193,282.665314 
	C2.497381,206.503113 26.061800,140.492416 79.435760,85.734024 
	C114.086784,50.184212 156.479950,28.130907 205.450668,18.975567 
	C248.712479,10.887539 291.047516,14.476462 332.372650,29.245781 
	C342.993622,33.041637 353.046997,38.425522 363.692413,43.246185 
M444.732513,153.038559 
	C440.673767,135.463165 427.200287,129.057022 409.250977,136.517502 
	C408.163483,135.109650 407.009674,133.615952 405.946533,132.239655 
	C415.223114,120.322052 415.480927,108.196884 406.995239,99.270981 
	C397.913605,89.718285 386.711426,89.630791 373.186859,99.127388 
	C372.423798,98.649361 371.531494,98.203064 370.778564,97.586563 
	C370.044678,96.985664 369.453247,96.210693 368.874725,95.592751 
	C374.663391,81.899605 371.792358,70.383659 361.131409,63.781708 
	C350.399750,57.135948 336.404694,59.905396 328.225830,72.842033 
	C326.644989,72.086609 325.041138,71.320190 323.529083,70.597633 
	C325.330963,55.469894 320.352814,45.314842 308.549347,41.962082 
	C304.017426,40.674801 298.548004,40.862095 293.942566,42.058620 
	C285.629486,44.218410 280.993195,50.804527 278.424133,58.774445 
	C276.448120,58.397949 274.849518,58.093365 273.360718,57.809704 
	C270.230194,41.697872 262.713715,33.494862 250.329300,34.081993 
	C245.326614,34.319172 239.927429,36.362507 235.635330,39.058926 
	C229.037766,43.203705 226.869507,50.372173 226.702957,58.109238 
	C224.733765,58.381516 223.125717,58.603859 221.380630,58.845150 
	C220.837784,57.567593 220.377121,56.523525 219.947739,55.466747 
	C215.381363,44.228237 203.716217,38.256119 192.318573,41.326679 
	C181.080917,44.354130 174.065933,54.992828 175.930969,67.013283 
	C176.603165,71.345627 174.475327,72.115944 171.379028,72.702774 
	C161.447403,60.343391 150.566238,57.097385 139.748749,63.145374 
	C128.112946,69.650871 125.083427,80.690674 130.851700,96.212364 
	C129.495789,97.226540 128.074371,98.289696 126.743622,99.285049 
	C113.634880,89.982712 102.936958,89.691704 93.890297,98.187157 
	C84.580505,106.929695 84.435188,117.389030 93.565849,132.517197 
	C92.493141,133.783752 91.362358,135.118881 90.243050,136.440460 
	C89.221672,136.020386 88.605881,135.789398 88.008385,135.518112 
	C76.411339,130.252701 64.507339,133.798508 58.066540,144.441315 
	C51.983223,154.493408 54.721966,167.020096 64.439201,174.764816 
	C65.571098,175.666962 66.530472,178.154068 66.066734,179.295914 
	C65.623535,180.387177 63.126865,181.400650 61.690357,181.216873 
	C44.854652,179.062820 31.546677,193.883606 35.941097,210.139465 
	C38.329582,218.974930 44.622536,223.974762 52.752445,226.651321 
	C53.660004,231.072403 51.945774,232.418488 47.884090,232.931046 
	C36.542995,234.362228 28.027849,244.318405 28.207663,255.235855 
	C28.402878,267.088257 36.933228,276.862274 48.632462,277.877014 
	C53.208805,278.273956 53.185936,280.631470 52.781471,284.022736 
	C51.445599,284.608063 50.081680,285.186310 48.733608,285.799408 
	C38.088734,290.640228 32.782188,301.677185 35.861221,312.557831 
	C39.140587,324.146393 49.539513,331.217285 61.273376,329.283691 
	C65.665283,328.559906 66.429298,330.728149 66.914032,333.932831 
	C54.678989,344.245026 51.610123,354.901001 57.714596,365.669342 
	C64.196259,377.103058 74.584465,379.915283 90.400574,374.349792 
	C91.457558,375.665894 92.575096,377.057373 93.648285,378.393646 
	C84.375954,392.105896 84.409897,403.410492 93.614723,412.296051 
	C102.787865,421.151031 113.424965,420.939850 126.747292,411.486450 
	C128.115982,412.503204 129.551407,413.569489 130.912292,414.580444 
	C125.469711,429.371033 127.845444,440.456573 137.665375,446.353210 
	C149.940689,453.724243 162.925537,450.997894 171.457413,438.245026 
	C175.510071,438.619873 176.337769,440.739288 175.876083,444.664215 
	C174.698959,454.671204 179.235550,463.248016 187.738449,467.511230 
	C196.841980,472.075562 205.745483,471.154633 213.319321,464.484192 
	C216.901306,461.329468 219.167801,456.681030 222.421982,452.165924 
	C223.291245,452.344299 225.015091,452.698090 226.615524,453.026520 
	C228.445908,467.762115 236.373184,476.439148 248.647995,476.874390 
	C262.699158,477.372620 272.073090,467.830322 273.598633,452.802246 
	C275.145752,452.550079 276.750092,452.288605 278.373260,452.024078 
	C278.733459,452.684509 279.049133,453.076050 279.174927,453.521240 
	C282.598175,465.636871 294.899261,472.276703 306.528168,469.605988 
	C316.054871,467.418152 326.117981,457.999390 323.872131,443.021301 
	C323.205505,438.575531 326.233765,438.896271 328.704132,438.179413 
	C337.354462,451.978119 350.587585,452.182281 359.585907,447.790131 
	C370.961517,442.237610 373.970184,431.912506 369.051605,414.416748 
	C370.419128,413.454041 371.866272,412.435303 373.205261,411.492706 
	C385.709442,420.919250 396.907532,421.185089 406.050964,412.462952 
	C414.603577,404.304443 416.621796,390.393860 406.030884,378.207153 
	C407.137939,376.848022 408.268646,375.459839 409.330994,374.155579 
	C423.927734,379.910675 435.022400,377.561768 441.237732,366.959808 
	C448.792145,354.073608 444.537933,341.839569 432.590607,333.581818 
	C432.914368,329.903931 434.474304,328.595337 438.478333,329.282196 
	C449.547516,331.181030 460.713989,324.021271 463.709229,313.569763 
	C466.943787,302.283173 461.841827,290.781067 451.448975,285.962830 
	C449.822632,285.208862 448.165985,284.520325 446.342621,283.722443 
	C446.706451,281.770996 447.026764,280.053009 447.326599,278.444794 
	C462.271271,276.582336 470.786896,268.779602 471.369873,256.698273 
	C472.001007,243.618866 464.387939,235.748413 447.418030,231.936646 
	C446.336060,227.073105 446.336060,227.073074 450.747681,225.053162 
	C459.923157,220.852051 465.626862,211.579025 464.750366,202.287567 
	C463.793335,192.142654 456.726746,183.793442 446.529297,181.688141 
	C442.747955,180.907486 438.670288,181.561996 434.647675,181.561996 
	C432.285431,178.650833 432.421326,176.488937 435.864807,173.961548 
	C442.510254,169.084015 445.262604,162.103012 444.732513,153.038559 
z"/>
<path fill="#EF2B71" opacity="1.000000" stroke="none" 
	d="
M468.812347,120.903976 
	C471.890320,114.710121 476.736115,112.576141 481.778229,114.875328 
	C486.513824,117.034729 488.723846,122.068176 487.025848,126.827309 
	C485.325043,131.594299 480.390259,134.170639 475.406647,132.893494 
	C470.545105,131.647614 467.984558,127.207329 468.812347,120.903976 
z"/>
<path fill="#73D0E9" opacity="1.000000" stroke="none" 
	d="
M432.413788,60.293617 
	C437.583557,58.940067 441.754852,59.798866 444.406982,64.340805 
	C446.524170,67.966637 446.753937,72.196281 443.542877,74.867523 
	C441.041870,76.948074 437.140839,78.475327 433.957275,78.318176 
	C430.027710,78.124214 427.213409,74.956352 426.667877,70.631882 
	C426.084503,66.007187 427.854950,62.554672 432.413788,60.293617 
z"/>
<path fill="#EF2C71" opacity="1.000000" stroke="none" 
	d="
M468.672119,389.235291 
	C468.262726,382.425446 471.545105,378.061646 477.071442,377.568878 
	C482.215637,377.110199 486.501984,380.442078 487.421051,385.613892 
	C488.304474,390.585144 484.886108,395.211334 479.390717,396.481659 
	C474.892334,397.521515 471.388092,395.251770 468.672119,389.235291 
z"/>
<path fill="#74D0E8" opacity="1.000000" stroke="none" 
	d="
M428.982574,448.055237 
	C426.021667,444.022736 425.180206,439.648895 428.370270,436.372925 
	C430.585114,434.098419 434.505066,432.554657 437.731415,432.428436 
	C441.831787,432.268005 444.551117,435.452759 445.489075,439.591797 
	C446.438019,443.779297 444.866882,447.279816 441.484863,449.531372 
	C437.292938,452.322113 433.013580,451.805359 428.982574,448.055237 
z"/>
<path fill="#EF2C71" opacity="1.000000" stroke="none" 
	d="
M27.839825,131.043762 
	C22.089199,134.184357 17.337814,133.563873 14.185355,129.525330 
	C11.343955,125.885277 11.572008,120.653748 14.722458,117.204247 
	C18.041737,113.569908 23.300652,112.965042 27.339247,115.753090 
	C32.256786,119.147942 32.598995,125.475273 27.839825,131.043762 
z"/>
<path fill="#EF2B71" opacity="1.000000" stroke="none" 
	d="
M24.113125,377.857697 
	C29.100597,379.557465 31.592550,382.762634 31.343506,387.713959 
	C31.090916,392.735840 26.441553,397.030731 21.815226,396.762512 
	C16.494961,396.454102 11.866470,391.545593 12.176058,386.540222 
	C12.530069,380.816589 17.013592,377.422729 24.113125,377.857697 
z"/>
<path fill="#74D0E8" opacity="1.000000" stroke="none" 
	d="
M73.189606,69.008781 
	C73.638794,75.921288 66.256584,79.595917 62.140591,78.763977 
	C56.609116,77.645927 52.962368,72.189133 54.305210,66.870430 
	C55.679661,61.426529 61.274261,58.324463 66.740456,60.095989 
	C70.803528,61.412777 72.930794,64.323471 73.189606,69.008781 
z"/>
<path fill="#EF2B71" opacity="1.000000" stroke="none" 
	d="
M127.231972,24.018366 
	C128.828903,29.222969 127.004028,32.971470 123.072113,35.595139 
	C119.719101,37.832527 116.093102,37.518410 112.766586,35.199677 
	C109.198860,32.712814 107.623703,28.872854 109.204407,25.164942 
	C110.408195,22.341169 113.261955,19.273418 116.071579,18.294609 
	C120.763046,16.660202 124.808411,18.976381 127.231972,24.018366 
z"/>
<path fill="#EF2B71" opacity="1.000000" stroke="none" 
	d="
M390.154114,23.212936 
	C392.067413,28.408981 391.027283,32.492748 386.731750,35.388317 
	C383.206146,37.764877 378.970062,38.085655 376.182709,34.980629 
	C374.003693,32.553246 371.974365,28.397797 372.545746,25.544247 
	C373.114838,22.701998 376.592285,19.487240 379.543091,18.306337 
	C383.699677,16.642887 387.664093,18.646162 390.154114,23.212936 
z"/>
<path fill="#73D0E9" opacity="1.000000" stroke="none" 
	d="
M73.173569,441.136353 
	C73.089561,446.281769 70.738174,449.541901 66.276566,450.830200 
	C62.507256,451.918610 58.965672,450.986237 56.386292,447.775665 
	C53.738388,444.479828 53.186207,440.808990 55.225388,437.046570 
	C57.263542,433.286041 60.697723,431.609863 64.840111,432.177490 
	C69.655602,432.837311 72.614799,435.707367 73.173569,441.136353 
z"/>
<path fill="#EF2B71" opacity="1.000000" stroke="none" 
	d="
M387.071411,491.250122 
	C382.283447,494.007996 378.103119,493.525421 374.566528,489.862640 
	C371.467377,486.652954 371.107147,482.743591 373.141876,478.854095 
	C375.213623,474.893921 378.987793,472.821991 383.058777,474.196747 
	C385.980499,475.183411 389.172485,477.749664 390.511383,480.465393 
	C392.351379,484.197418 390.969940,488.238770 387.071411,491.250122 
z"/>
<path fill="#EF2B72" opacity="1.000000" stroke="none" 
	d="
M111.009064,477.144409 
	C114.640045,473.551971 118.523415,472.926178 122.718185,474.947449 
	C126.432930,476.737457 127.969284,480.063812 127.811096,483.971008 
	C127.648499,487.987396 125.376534,490.828003 121.625198,492.291229 
	C117.388771,493.943695 113.633591,492.863739 110.865799,489.421631 
	C107.794327,485.601929 107.943916,481.467773 111.009064,477.144409 
z"/>
<path fill="#7C265F" opacity="1.000000" stroke="none" 
	d="
M444.783356,153.459244 
	C445.262604,162.103012 442.510254,169.084015 435.864807,173.961548 
	C432.421326,176.488937 432.285431,178.650833 434.647675,181.561996 
	C438.670288,181.561996 442.747955,180.907486 446.529297,181.688141 
	C456.726746,183.793442 463.793335,192.142654 464.750366,202.287567 
	C465.626862,211.579025 459.923157,220.852051 450.747681,225.053162 
	C446.336060,227.073074 446.336060,227.073105 447.418030,231.936646 
	C464.387939,235.748413 472.001007,243.618866 471.369873,256.698273 
	C470.786896,268.779602 462.271271,276.582336 447.326599,278.444794 
	C447.026764,280.053009 446.706451,281.770996 446.342621,283.722443 
	C448.165985,284.520325 449.822632,285.208862 451.448975,285.962830 
	C461.841827,290.781067 466.943787,302.283173 463.709229,313.569763 
	C460.713989,324.021271 449.547516,331.181030 438.478333,329.282196 
	C434.474304,328.595337 432.914368,329.903931 432.590607,333.581818 
	C444.537933,341.839569 448.792145,354.073608 441.237732,366.959808 
	C435.022400,377.561768 423.927734,379.910675 409.330994,374.155579 
	C408.268646,375.459839 407.137939,376.848022 406.030884,378.207153 
	C416.621796,390.393860 414.603577,404.304443 406.050964,412.462952 
	C396.907532,421.185089 385.709442,420.919250 373.205261,411.492706 
	C371.866272,412.435303 370.419128,413.454041 369.051605,414.416748 
	C373.970184,431.912506 370.961517,442.237610 359.585907,447.790131 
	C350.587585,452.182281 337.354462,451.978119 328.704132,438.179413 
	C326.233765,438.896271 323.205505,438.575531 323.872131,443.021301 
	C326.117981,457.999390 316.054871,467.418152 306.528168,469.605988 
	C294.899261,472.276703 282.598175,465.636871 279.174927,453.521240 
	C279.049133,453.076050 278.733459,452.684509 278.373260,452.024078 
	C276.750092,452.288605 275.145752,452.550079 273.598633,452.802246 
	C272.073090,467.830322 262.699158,477.372620 248.647995,476.874390 
	C236.373184,476.439148 228.445908,467.762115 226.615524,453.026520 
	C225.015091,452.698090 223.291245,452.344299 222.421982,452.165924 
	C219.167801,456.681030 216.901306,461.329468 213.319321,464.484192 
	C205.745483,471.154633 196.841980,472.075562 187.738449,467.511230 
	C179.235550,463.248016 174.698959,454.671204 175.876083,444.664215 
	C176.337769,440.739288 175.510071,438.619873 171.457123,438.245239 
	C162.925537,450.997894 149.940689,453.724243 137.665375,446.353210 
	C127.845444,440.456573 125.469711,429.371033 130.912292,414.580444 
	C129.551407,413.569489 128.115982,412.503204 126.747292,411.486450 
	C113.424965,420.939850 102.787865,421.151031 93.614723,412.296051 
	C84.409897,403.410492 84.375954,392.105896 93.648285,378.393646 
	C92.575096,377.057373 91.457558,375.665894 90.400574,374.349792 
	C74.584465,379.915283 64.196259,377.103058 57.714596,365.669342 
	C51.610123,354.901001 54.678989,344.245026 66.914032,333.932831 
	C66.429298,330.728149 65.665283,328.559906 61.273376,329.283691 
	C49.539513,331.217285 39.140587,324.146393 35.861221,312.557831 
	C32.782188,301.677185 38.088734,290.640228 48.733608,285.799408 
	C50.081680,285.186310 51.445599,284.608063 52.781471,284.022736 
	C53.185936,280.631470 53.208805,278.273956 48.632462,277.877014 
	C36.933228,276.862274 28.402878,267.088257 28.207663,255.235855 
	C28.027849,244.318405 36.542995,234.362228 47.884090,232.931046 
	C51.945774,232.418488 53.660004,231.072403 52.752445,226.651321 
	C44.622536,223.974762 38.329582,218.974930 35.941097,210.139465 
	C31.546677,193.883606 44.854652,179.062820 61.690357,181.216873 
	C63.126865,181.400650 65.623535,180.387177 66.066734,179.295914 
	C66.530472,178.154068 65.571098,175.666962 64.439201,174.764816 
	C54.721966,167.020096 51.983223,154.493408 58.066540,144.441315 
	C64.507339,133.798508 76.411339,130.252701 88.008385,135.518112 
	C88.605881,135.789398 89.221672,136.020386 90.243050,136.440460 
	C91.362358,135.118881 92.493141,133.783752 93.565849,132.517197 
	C84.435188,117.389030 84.580505,106.929695 93.890297,98.187157 
	C102.936958,89.691704 113.634880,89.982712 126.743622,99.285049 
	C128.074371,98.289696 129.495789,97.226540 130.851700,96.212364 
	C125.083427,80.690674 128.112946,69.650871 139.748749,63.145374 
	C150.566238,57.097385 161.447403,60.343391 171.379028,72.702774 
	C174.475327,72.115944 176.603165,71.345627 175.930969,67.013283 
	C174.065933,54.992828 181.080917,44.354130 192.318573,41.326679 
	C203.716217,38.256119 215.381363,44.228237 219.947739,55.466747 
	C220.377121,56.523525 220.837784,57.567593 221.380630,58.845150 
	C223.125717,58.603859 224.733765,58.381516 226.702957,58.109238 
	C226.869507,50.372173 229.037766,43.203705 235.635330,39.058926 
	C239.927429,36.362507 245.326614,34.319172 250.329300,34.081993 
	C262.713715,33.494862 270.230194,41.697872 273.360718,57.809704 
	C274.849518,58.093365 276.448120,58.397949 278.424133,58.774445 
	C280.993195,50.804527 285.629486,44.218410 293.942566,42.058620 
	C298.548004,40.862095 304.017426,40.674801 308.549347,41.962082 
	C320.352814,45.314842 325.330963,55.469894 323.529083,70.597633 
	C325.041138,71.320190 326.644989,72.086609 328.225830,72.842033 
	C336.404694,59.905396 350.399750,57.135948 361.131409,63.781708 
	C371.792358,70.383659 374.663391,81.899605 368.874725,95.592751 
	C369.453247,96.210693 370.044678,96.985664 370.778564,97.586563 
	C371.531494,98.203064 372.423798,98.649361 373.186859,99.127388 
	C386.711426,89.630791 397.913605,89.718285 406.995239,99.270981 
	C415.480927,108.196884 415.223114,120.322052 405.946533,132.239655 
	C407.009674,133.615952 408.163483,135.109650 409.250977,136.517502 
	C427.200287,129.057022 440.673767,135.463165 444.783356,153.459244 
M371.928009,169.597351 
	C363.868927,160.767471 356.603149,151.016754 347.611115,143.269714 
	C311.838562,112.449974 270.280243,100.530014 223.660416,108.762871 
	C188.679871,114.940285 159.288391,131.610443 136.336258,159.035828 
	C107.940170,192.966171 96.471077,232.074463 102.386017,275.765564 
	C107.428619,313.013062 124.551056,344.274567 153.290314,368.681854 
	C185.525101,396.057739 223.177658,407.778107 265.060791,403.630737 
	C304.670837,399.708435 337.922638,382.169678 363.714966,351.633667 
	C385.474487,325.872223 397.256287,295.791351 398.811737,262.131805 
	C400.359283,228.643799 391.151855,197.954102 371.928009,169.597351 
M143.430527,425.984131 
	C144.712601,428.607452 145.447601,431.857361 147.474808,433.627289 
	C148.762390,434.751434 152.780045,434.576843 154.123367,433.370270 
	C156.025085,431.662109 157.819138,428.224030 157.378342,425.971649 
	C156.939255,423.728027 153.983185,421.059814 151.594315,420.327454 
	C147.904968,419.196320 144.993103,421.463715 143.430527,425.984131 
M152.832809,76.390701 
	C146.350464,75.767174 141.548187,79.965919 143.712128,84.932327 
	C144.755203,87.326294 147.823990,89.622765 150.428253,90.356476 
	C153.831772,91.315384 156.416138,88.749741 157.451324,85.404808 
	C158.660126,81.498955 157.049072,78.623955 152.832809,76.390701 
M191.565125,65.734421 
	C193.479263,69.985672 196.766647,71.774406 201.145905,70.162262 
	C204.802017,68.816338 206.564377,65.718750 205.563934,61.831177 
	C204.594177,58.062859 201.820709,55.993309 197.862518,56.196346 
	C193.700928,56.409821 191.351746,59.742012 191.565125,65.734421 
M453.283264,260.778687 
	C456.593109,256.123108 456.619629,252.770737 453.205658,249.832535 
	C450.282623,247.316895 447.057892,247.266052 444.118896,249.647720 
	C441.024139,252.155640 440.324982,255.426086 442.365356,258.992371 
	C444.417755,262.579742 448.046875,263.310364 453.283264,260.778687 
M355.215179,423.286957 
	C352.918823,420.326019 349.722015,418.704773 346.570526,420.835358 
	C344.449341,422.269379 342.197693,425.481201 342.343170,427.747559 
	C342.491150,430.052429 345.113739,432.946625 347.401428,434.108154 
	C348.979309,434.909271 352.939575,433.904083 353.859375,432.453400 
	C355.316193,430.155762 355.119110,426.809448 355.215179,423.286957 
M434.630463,308.079742 
	C436.805725,313.625214 440.746979,315.516235 445.308380,313.203003 
	C448.938751,311.361908 450.494415,306.345093 447.728455,303.066650 
	C446.167542,301.216614 443.038055,299.554291 440.743408,299.709076 
	C436.693237,299.982269 434.643646,303.213196 434.630463,308.079742 
M54.230061,261.881561 
	C58.296566,259.475861 59.679871,256.018982 57.447807,251.804092 
	C55.583279,248.283279 52.273468,247.035568 48.551853,248.631363 
	C44.961792,250.170761 43.266811,253.141937 44.265530,257.116302 
	C45.291149,261.197693 48.722412,262.977448 54.230061,261.881561 
M200.040115,440.178467 
	C193.812775,440.285980 190.085724,443.966431 191.448151,448.757050 
	C192.467041,452.339752 194.936920,454.571686 198.646530,454.568451 
	C202.082077,454.565430 204.760193,452.742706 205.555405,449.186279 
	C206.492935,444.993439 204.556747,442.150665 200.040115,440.178467 
M347.170410,90.311264 
	C348.321411,90.352119 349.511932,90.603157 350.616272,90.395699 
	C354.416443,89.681824 356.862640,86.206665 356.299957,82.311752 
	C355.712646,78.246986 353.096344,76.077415 349.148376,76.105782 
	C345.159271,76.134438 342.077759,78.602989 342.287689,82.461617 
	C342.429413,85.067055 344.985352,87.541161 347.170410,90.311264 
M305.125519,441.121002 
	C302.025604,439.461853 298.661346,439.187195 296.579529,442.121155 
	C295.142273,444.146698 294.141998,447.458069 294.768738,449.681030 
	C295.326630,451.659790 298.403229,454.215057 300.343384,454.194305 
	C302.811462,454.167938 305.915222,452.338806 307.553711,450.320099 
	C310.014191,447.288483 308.431366,444.074127 305.125519,441.121002 
M306.274506,58.167240 
	C303.186737,55.499454 299.548401,55.083351 296.951416,58.034214 
	C295.295319,59.915985 294.301636,63.431057 294.758270,65.889244 
	C295.552399,70.164558 300.280334,71.779770 304.217133,69.930679 
	C308.742157,67.805313 309.574860,64.133202 306.274506,58.167240 
M52.615582,311.778809 
	C53.901215,312.482269 55.118275,313.571045 56.485798,313.814392 
	C60.081367,314.454285 63.219154,313.422516 64.558273,309.711212 
	C65.860420,306.102356 65.255676,302.705017 61.707741,300.604340 
	C58.237106,298.549408 54.392410,298.992981 52.569225,302.395996 
	C51.324371,304.719513 52.208183,308.183472 52.615582,311.778809 
M443.932037,197.161179 
	C439.591370,196.321655 436.292908,197.566116 434.899353,202.032410 
	C433.816193,205.503983 435.063507,208.262802 438.173492,210.063370 
	C441.623627,212.060898 445.887573,211.056763 447.872131,207.910355 
	C450.194305,204.228699 449.070496,200.521011 443.932037,197.161179 
M84.754990,356.845001 
	C85.160851,351.342529 83.568291,348.572968 79.345222,347.818634 
	C75.387169,347.111664 72.376518,348.654663 71.064133,352.462555 
	C69.729210,356.335846 71.354233,359.414886 74.889778,361.154297 
	C79.155922,363.253143 82.193672,361.294556 84.754990,356.845001 
M80.045319,163.001755 
	C83.986420,161.414551 86.087372,158.226151 84.662819,154.423523 
	C83.810776,152.149124 80.941620,149.823776 78.517952,149.128143 
	C74.588928,148.000443 71.115059,151.286987 70.722992,155.390579 
	C70.266060,160.173111 73.071892,162.718277 80.045319,163.001755 
M256.813202,58.935452 
	C257.658661,55.288982 256.671478,51.892590 253.290939,50.618992 
	C251.051041,49.775112 247.369415,49.992001 245.628906,51.370262 
	C243.904968,52.735394 242.825790,56.353157 243.286377,58.611118 
	C243.700073,60.639271 246.305420,62.978466 248.449997,63.723099 
	C251.926376,64.930145 254.791931,62.989944 256.813202,58.935452 
M243.217255,451.195099 
	C242.420990,457.095978 244.268372,460.534485 248.675537,461.098389 
	C252.431564,461.578949 255.270508,460.049835 256.603210,456.495209 
	C257.947815,452.908844 256.793152,449.739075 253.521133,447.917603 
	C249.637360,445.755585 246.145630,446.655365 243.217255,451.195099 
M428.384644,351.508972 
	C426.478333,348.186920 423.424103,346.621460 420.026398,348.092804 
	C417.936523,348.997833 415.418762,351.462585 415.196136,353.461243 
	C414.940765,355.753845 416.404480,359.119293 418.254700,360.499817 
	C419.875732,361.709320 423.392181,361.578308 425.488312,360.679565 
	C428.920319,359.208008 429.725098,355.843292 428.384644,351.508972 
M383.960388,399.303375 
	C388.466003,404.117035 394.615662,404.281616 396.504974,399.205811 
	C397.360504,396.907410 396.901917,392.713989 395.319061,391.282410 
	C393.487366,389.625641 389.377655,388.982147 386.950470,389.846436 
	C383.423096,391.102478 382.199158,394.711121 383.960388,399.303375 
M429.085571,155.604813 
	C428.751343,152.010147 426.801666,149.759674 423.301697,149.023026 
	C419.451569,148.212708 415.765198,150.635208 414.948975,154.340805 
	C414.108765,158.155258 416.359314,162.133408 419.854950,163.012726 
	C424.251556,164.118668 427.729065,161.629211 429.085571,155.604813 
M392.855591,108.124313 
	C389.086090,107.348885 385.521790,107.868820 384.082733,111.773735 
	C383.333649,113.806404 383.288513,117.171974 384.500244,118.585228 
	C386.055450,120.399132 389.315460,121.868240 391.614349,121.592941 
	C393.646240,121.349632 396.033264,118.842255 397.077454,116.744225 
	C398.870422,113.141647 396.500946,110.475708 392.855591,108.124313 
M64.614372,206.762253 
	C65.731598,202.344788 64.803368,198.680710 60.104340,197.256744 
	C56.407333,196.136414 53.063377,197.291748 51.513699,201.112442 
	C50.148312,204.478760 50.700150,207.885620 53.975353,209.844620 
	C57.908245,212.196976 61.568310,211.470245 64.614372,206.762253 
M112.627525,389.400482 
	C111.491211,389.219055 110.353546,388.875580 109.218834,388.885132 
	C104.988800,388.920654 102.827660,391.622162 102.267769,395.339569 
	C101.734039,398.883148 103.809349,401.400909 107.120110,402.537506 
	C110.703102,403.767609 113.750481,402.602234 115.686913,399.392029 
	C118.010139,395.540619 116.399841,392.443359 112.627525,389.400482 
M110.285461,107.883324 
	C106.128967,107.452034 103.161949,109.585052 102.646393,113.319054 
	C102.331413,115.600311 103.687294,118.841187 105.402290,120.512543 
	C108.393860,123.428001 113.489632,122.075027 115.679230,118.489578 
	C118.127571,114.480438 116.384407,110.486618 110.285461,107.883324 
z"/>
<path fill="#E31154" opacity="1.000000" stroke="none" 
	d="
M372.143951,169.882690 
	C391.151855,197.954102 400.359283,228.643799 398.811737,262.131805 
	C397.256287,295.791351 385.474487,325.872223 363.714966,351.633667 
	C337.922638,382.169678 304.670837,399.708435 265.060791,403.630737 
	C223.177658,407.778107 185.525101,396.057739 153.290314,368.681854 
	C124.551056,344.274567 107.428619,313.013062 102.386017,275.765564 
	C96.471077,232.074463 107.940170,192.966171 136.336258,159.035828 
	C159.288391,131.610443 188.679871,114.940285 223.660416,108.762871 
	C270.280243,100.530014 311.838562,112.449974 347.611115,143.269714 
	C356.603149,151.016754 363.868927,160.767471 372.143951,169.882690 
M298.682129,219.808075 
	C272.372192,204.661591 245.014099,200.801361 216.334290,212.405960 
	C196.743729,220.332825 180.067749,232.627518 165.162018,247.416779 
	C160.378189,252.163223 155.926422,257.244354 151.153183,262.353851 
	C169.668289,283.802399 190.018005,301.332184 215.645355,312.096100 
	C231.556168,318.778931 247.996613,321.141174 264.982513,317.908386 
	C279.530792,315.139526 292.810669,309.101807 305.238098,301.074646 
	C321.582123,290.517609 335.821228,277.669342 348.427795,262.445190 
	C334.352295,245.348679 318.223175,231.154968 298.682129,219.808075 
M320.543091,178.019058 
	C312.932953,186.573883 305.372070,195.173370 297.681488,203.655228 
	C295.488861,206.073441 293.625732,208.428116 296.399597,211.369064 
	C299.321228,214.466629 302.190216,213.140961 304.476715,210.439453 
	C315.506805,197.407242 326.471375,184.319443 337.415863,171.215164 
	C339.567688,168.638672 340.361969,165.502151 337.407440,163.303329 
	C334.187073,160.906662 331.501038,162.934875 329.455078,165.758133 
	C326.630066,169.656372 323.811066,173.558914 320.543091,178.019058 
M171.081345,163.704544 
	C166.803558,166.721970 166.448044,168.785812 169.897583,172.946808 
	C177.644424,182.291428 185.493637,191.551254 193.311325,200.837036 
	C195.559753,203.507706 197.535645,206.545074 200.236542,208.641113 
	C201.637985,209.728714 205.037857,210.006897 206.274796,209.039505 
	C207.489075,208.089844 207.361191,205.092590 207.310410,203.006393 
	C207.287399,202.061966 206.066269,201.113724 205.319946,200.224945 
	C195.910110,189.018707 186.545456,177.773331 176.998871,166.684616 
	C175.738892,165.221100 173.534286,164.570831 171.081345,163.704544 
M248.193741,187.912674 
	C253.690704,190.911606 256.737183,189.293304 256.915771,183.140656 
	C257.276947,170.699509 257.519531,158.254974 257.865448,145.813339 
	C257.962402,142.325912 257.355286,139.159790 253.156036,139.095642 
	C249.124420,139.034042 248.084717,141.893890 248.023010,145.523193 
	C247.817062,157.635590 247.428207,169.744797 247.194153,181.856873 
	C247.159744,183.637421 247.584290,185.426834 248.193741,187.912674 
M193.726761,338.297028 
	C196.023163,335.247070 198.764008,332.417328 200.429718,329.054932 
	C201.271271,327.356232 200.922424,324.115051 199.764481,322.603363 
	C198.056351,320.373444 195.192047,320.827454 193.330658,323.130859 
	C189.993591,327.260376 186.489883,331.329865 183.802124,335.866577 
	C182.933395,337.332886 183.732483,340.839722 185.036423,342.177002 
	C185.930374,343.093842 189.088715,342.114990 191.087265,341.502228 
	C191.997681,341.223083 192.551407,339.780548 193.726761,338.297028 
M317.272705,329.215576 
	C319.317902,330.631470 321.197113,332.646759 323.460785,333.273621 
	C325.271637,333.775055 328.434509,333.238892 329.370270,331.966553 
	C330.292999,330.712036 329.959656,327.149292 328.795898,326.008209 
	C325.509338,322.785706 321.733246,319.876282 317.686096,317.710571 
	C316.147034,316.887024 312.399750,317.731445 311.393585,319.095367 
	C310.475555,320.339813 311.466003,323.536560 312.439270,325.454803 
	C313.180481,326.915741 315.212097,327.721924 317.272705,329.215576 
M262.129944,351.304230 
	C262.106598,348.495789 262.293335,345.665771 262.007172,342.884369 
	C261.642578,339.340729 259.038147,337.620728 256.118561,339.153748 
	C254.366943,340.073517 252.728470,343.249390 252.857971,345.296204 
	C253.148743,349.892029 250.138443,355.544830 255.750046,358.795044 
	C256.835266,359.423645 259.615417,358.694244 260.531921,357.645660 
	C261.657806,356.357605 261.647919,354.076874 262.129944,351.304230 
z"/>
<path fill="#70C9E7" opacity="1.000000" stroke="none" 
	d="
M143.553131,425.625000 
	C144.993103,421.463715 147.904968,419.196320 151.594315,420.327454 
	C153.983185,421.059814 156.939255,423.728027 157.378342,425.971649 
	C157.819138,428.224030 156.025085,431.662109 154.123367,433.370270 
	C152.780045,434.576843 148.762390,434.751434 147.474808,433.627289 
	C145.447601,431.857361 144.712601,428.607452 143.553131,425.625000 
z"/>
<path fill="#70C9E6" opacity="1.000000" stroke="none" 
	d="
M153.182343,76.559975 
	C157.049072,78.623955 158.660126,81.498955 157.451324,85.404808 
	C156.416138,88.749741 153.831772,91.315384 150.428253,90.356476 
	C147.823990,89.622765 144.755203,87.326294 143.712128,84.932327 
	C141.548187,79.965919 146.350464,75.767174 153.182343,76.559975 
z"/>
<path fill="#EA2771" opacity="1.000000" stroke="none" 
	d="
M191.436539,65.371124 
	C191.351746,59.742012 193.700928,56.409821 197.862518,56.196346 
	C201.820709,55.993309 204.594177,58.062859 205.563934,61.831177 
	C206.564377,65.718750 204.802017,68.816338 201.145905,70.162262 
	C196.766647,71.774406 193.479263,69.985672 191.436539,65.371124 
z"/>
<path fill="#71C8E6" opacity="1.000000" stroke="none" 
	d="
M452.970703,260.982361 
	C448.046875,263.310364 444.417755,262.579742 442.365356,258.992371 
	C440.324982,255.426086 441.024139,252.155640 444.118896,249.647720 
	C447.057892,247.266052 450.282623,247.316895 453.205658,249.832535 
	C456.619629,252.770737 456.593109,256.123108 452.970703,260.982361 
z"/>
<path fill="#70CAE7" opacity="1.000000" stroke="none" 
	d="
M355.418488,423.596924 
	C355.119110,426.809448 355.316193,430.155762 353.859375,432.453400 
	C352.939575,433.904083 348.979309,434.909271 347.401428,434.108154 
	C345.113739,432.946625 342.491150,430.052429 342.343170,427.747559 
	C342.197693,425.481201 344.449341,422.269379 346.570526,420.835358 
	C349.722015,418.704773 352.918823,420.326019 355.418488,423.596924 
z"/>
<path fill="#EC2771" opacity="1.000000" stroke="none" 
	d="
M434.559937,307.722717 
	C434.643646,303.213196 436.693237,299.982269 440.743408,299.709076 
	C443.038055,299.554291 446.167542,301.216614 447.728455,303.066650 
	C450.494415,306.345093 448.938751,311.361908 445.308380,313.203003 
	C440.746979,315.516235 436.805725,313.625214 434.559937,307.722717 
z"/>
<path fill="#70CAE7" opacity="1.000000" stroke="none" 
	d="
M53.879517,262.013306 
	C48.722412,262.977448 45.291149,261.197693 44.265530,257.116302 
	C43.266811,253.141937 44.961792,250.170761 48.551853,248.631363 
	C52.273468,247.035568 55.583279,248.283279 57.447807,251.804092 
	C59.679871,256.018982 58.296566,259.475861 53.879517,262.013306 
z"/>
<path fill="#EB2771" opacity="1.000000" stroke="none" 
	d="
M200.408722,440.298248 
	C204.556747,442.150665 206.492935,444.993439 205.555405,449.186279 
	C204.760193,452.742706 202.082077,454.565430 198.646530,454.568451 
	C194.936920,454.571686 192.467041,452.339752 191.448151,448.757050 
	C190.085724,443.966431 193.812775,440.285980 200.408722,440.298248 
z"/>
<path fill="#70CBE8" opacity="1.000000" stroke="none" 
	d="
M346.815918,90.192642 
	C344.985352,87.541161 342.429413,85.067055 342.287689,82.461617 
	C342.077759,78.602989 345.159271,76.134438 349.148376,76.105782 
	C353.096344,76.077415 355.712646,78.246986 356.299957,82.311752 
	C356.862640,86.206665 354.416443,89.681824 350.616272,90.395699 
	C349.511932,90.603157 348.321411,90.352119 346.815918,90.192642 
z"/>
<path fill="#EC2771" opacity="1.000000" stroke="none" 
	d="
M305.445709,441.335144 
	C308.431366,444.074127 310.014191,447.288483 307.553711,450.320099 
	C305.915222,452.338806 302.811462,454.167938 300.343384,454.194305 
	C298.403229,454.215057 295.326630,451.659790 294.768738,449.681030 
	C294.141998,447.458069 295.142273,444.146698 296.579529,442.121155 
	C298.661346,439.187195 302.025604,439.461853 305.445709,441.335144 
z"/>
<path fill="#EA2771" opacity="1.000000" stroke="none" 
	d="
M306.514221,58.455353 
	C309.574860,64.133202 308.742157,67.805313 304.217133,69.930679 
	C300.280334,71.779770 295.552399,70.164558 294.758270,65.889244 
	C294.301636,63.431057 295.295319,59.915985 296.951416,58.034214 
	C299.548401,55.083351 303.186737,55.499454 306.514221,58.455353 
z"/>
<path fill="#EB2771" opacity="1.000000" stroke="none" 
	d="
M52.377926,311.458191 
	C52.208183,308.183472 51.324371,304.719513 52.569225,302.395996 
	C54.392410,298.992981 58.237106,298.549408 61.707741,300.604340 
	C65.255676,302.705017 65.860420,306.102356 64.558273,309.711212 
	C63.219154,313.422516 60.081367,314.454285 56.485798,313.814392 
	C55.118275,313.571045 53.901215,312.482269 52.377926,311.458191 
z"/>
<path fill="#EC2771" opacity="1.000000" stroke="none" 
	d="
M444.312775,197.292297 
	C449.070496,200.521011 450.194305,204.228699 447.872131,207.910355 
	C445.887573,211.056763 441.623627,212.060898 438.173492,210.063370 
	C435.063507,208.262802 433.816193,205.503983 434.899353,202.032410 
	C436.292908,197.566116 439.591370,196.321655 444.312775,197.292297 
z"/>
<path fill="#70CDE9" opacity="1.000000" stroke="none" 
	d="
M84.582306,357.199219 
	C82.193672,361.294556 79.155922,363.253143 74.889778,361.154297 
	C71.354233,359.414886 69.729210,356.335846 71.064133,352.462555 
	C72.376518,348.654663 75.387169,347.111664 79.345222,347.818634 
	C83.568291,348.572968 85.160851,351.342529 84.582306,357.199219 
z"/>
<path fill="#70CCE8" opacity="1.000000" stroke="none" 
	d="
M79.647758,163.063660 
	C73.071892,162.718277 70.266060,160.173111 70.722992,155.390579 
	C71.115059,151.286987 74.588928,148.000443 78.517952,149.128143 
	C80.941620,149.823776 83.810776,152.149124 84.662819,154.423523 
	C86.087372,158.226151 83.986420,161.414551 79.647758,163.063660 
z"/>
<path fill="#70CBE8" opacity="1.000000" stroke="none" 
	d="
M256.651978,59.297928 
	C254.791931,62.989944 251.926376,64.930145 248.449997,63.723099 
	C246.305420,62.978466 243.700073,60.639271 243.286377,58.611118 
	C242.825790,56.353157 243.904968,52.735394 245.628906,51.370262 
	C247.369415,49.992001 251.051041,49.775112 253.290939,50.618992 
	C256.671478,51.892590 257.658661,55.288982 256.651978,59.297928 
z"/>
<path fill="#70CCE9" opacity="1.000000" stroke="none" 
	d="
M243.418030,450.844421 
	C246.145630,446.655365 249.637360,445.755585 253.521133,447.917603 
	C256.793152,449.739075 257.947815,452.908844 256.603210,456.495209 
	C255.270508,460.049835 252.431564,461.578949 248.675537,461.098389 
	C244.268372,460.534485 242.420990,457.095978 243.418030,450.844421 
z"/>
<path fill="#70CCE8" opacity="1.000000" stroke="none" 
	d="
M428.557739,351.860046 
	C429.725098,355.843292 428.920319,359.208008 425.488312,360.679565 
	C423.392181,361.578308 419.875732,361.709320 418.254700,360.499817 
	C416.404480,359.119293 414.940765,355.753845 415.196136,353.461243 
	C415.418762,351.462585 417.936523,348.997833 420.026398,348.092804 
	C423.424103,346.621460 426.478333,348.186920 428.557739,351.860046 
z"/>
<path fill="#ED2772" opacity="1.000000" stroke="none" 
	d="
M383.773987,398.961182 
	C382.199158,394.711121 383.423096,391.102478 386.950470,389.846436 
	C389.377655,388.982147 393.487366,389.625641 395.319061,391.282410 
	C396.901917,392.713989 397.360504,396.907410 396.504974,399.205811 
	C394.615662,404.281616 388.466003,404.117035 383.773987,398.961182 
z"/>
<path fill="#70CBE8" opacity="1.000000" stroke="none" 
	d="
M429.085938,156.004547 
	C427.729065,161.629211 424.251556,164.118668 419.854950,163.012726 
	C416.359314,162.133408 414.108765,158.155258 414.948975,154.340805 
	C415.765198,150.635208 419.451569,148.212708 423.301697,149.023026 
	C426.801666,149.759674 428.751343,152.010147 429.085938,156.004547 
z"/>
<path fill="#ED2772" opacity="1.000000" stroke="none" 
	d="
M393.225922,108.262558 
	C396.500946,110.475708 398.870422,113.141647 397.077454,116.744225 
	C396.033264,118.842255 393.646240,121.349632 391.614349,121.592941 
	C389.315460,121.868240 386.055450,120.399132 384.500244,118.585228 
	C383.288513,117.171974 383.333649,113.806404 384.082733,111.773735 
	C385.521790,107.868820 389.086090,107.348885 393.225922,108.262558 
z"/>
<path fill="#EC2771" opacity="1.000000" stroke="none" 
	d="
M64.436432,207.118988 
	C61.568310,211.470245 57.908245,212.196976 53.975353,209.844620 
	C50.700150,207.885620 50.148312,204.478760 51.513699,201.112442 
	C53.063377,197.291748 56.407333,196.136414 60.104340,197.256744 
	C64.803368,198.680710 65.731598,202.344788 64.436432,207.118988 
z"/>
<path fill="#EC2772" opacity="1.000000" stroke="none" 
	d="
M112.959366,389.616638 
	C116.399841,392.443359 118.010139,395.540619 115.686913,399.392029 
	C113.750481,402.602234 110.703102,403.767609 107.120110,402.537506 
	C103.809349,401.400909 101.734039,398.883148 102.267769,395.339569 
	C102.827660,391.622162 104.988800,388.920654 109.218834,388.885132 
	C110.353546,388.875580 111.491211,389.219055 112.959366,389.616638 
z"/>
<path fill="#EC2772" opacity="1.000000" stroke="none" 
	d="
M110.686111,107.925461 
	C116.384407,110.486618 118.127571,114.480438 115.679230,118.489578 
	C113.489632,122.075027 108.393860,123.428001 105.402290,120.512543 
	C103.687294,118.841187 102.331413,115.600311 102.646393,113.319054 
	C103.161949,109.585052 106.128967,107.452034 110.686111,107.925461 
z"/>
<path fill="#FABCDF" opacity="1.000000" stroke="none" 
	d="
M299.016174,219.958740 
	C318.223175,231.154968 334.352295,245.348679 348.427795,262.445190 
	C335.821228,277.669342 321.582123,290.517609 305.238098,301.074646 
	C292.810669,309.101807 279.530792,315.139526 264.982513,317.908386 
	C247.996613,321.141174 231.556168,318.778931 215.645355,312.096100 
	C190.018005,301.332184 169.668289,283.802399 151.153183,262.353851 
	C155.926422,257.244354 160.378189,252.163223 165.162018,247.416779 
	C180.067749,232.627518 196.743729,220.332825 216.334290,212.405960 
	C245.014099,200.801361 272.372192,204.661591 299.016174,219.958740 
M271.217346,290.781006 
	C272.465332,289.681671 273.770538,288.640350 274.952423,287.474030 
	C286.634125,275.945496 288.696167,257.022980 279.775665,243.441360 
	C270.247070,228.933975 252.492401,222.959671 236.924042,229.491043 
	C223.299713,235.206879 215.555862,245.727081 214.660583,260.513245 
	C213.787781,274.928314 220.060410,286.247498 232.520264,293.259216 
	C245.341003,300.473999 258.340637,299.536652 271.217346,290.781006 
z"/>
<path fill="#73CCE9" opacity="1.000000" stroke="none" 
	d="
M320.766296,177.739334 
	C323.811066,173.558914 326.630066,169.656372 329.455078,165.758133 
	C331.501038,162.934875 334.187073,160.906662 337.407440,163.303329 
	C340.361969,165.502151 339.567688,168.638672 337.415863,171.215164 
	C326.471375,184.319443 315.506805,197.407242 304.476715,210.439453 
	C302.190216,213.140961 299.321228,214.466629 296.399597,211.369064 
	C293.625732,208.428116 295.488861,206.073441 297.681488,203.655228 
	C305.372070,195.173370 312.932953,186.573883 320.766296,177.739334 
z"/>
<path fill="#72CCE9" opacity="1.000000" stroke="none" 
	d="
M171.424255,163.624237 
	C173.534286,164.570831 175.738892,165.221100 176.998871,166.684616 
	C186.545456,177.773331 195.910110,189.018707 205.319946,200.224945 
	C206.066269,201.113724 207.287399,202.061966 207.310410,203.006393 
	C207.361191,205.092590 207.489075,208.089844 206.274796,209.039505 
	C205.037857,210.006897 201.637985,209.728714 200.236542,208.641113 
	C197.535645,206.545074 195.559753,203.507706 193.311325,200.837036 
	C185.493637,191.551254 177.644424,182.291428 169.897583,172.946808 
	C166.448044,168.785812 166.803558,166.721970 171.424255,163.624237 
z"/>
<path fill="#74CAE7" opacity="1.000000" stroke="none" 
	d="
M247.995117,187.562408 
	C247.584290,185.426834 247.159744,183.637421 247.194153,181.856873 
	C247.428207,169.744797 247.817062,157.635590 248.023010,145.523193 
	C248.084717,141.893890 249.124420,139.034042 253.156036,139.095642 
	C257.355286,139.159790 257.962402,142.325912 257.865448,145.813339 
	C257.519531,158.254974 257.276947,170.699509 256.915771,183.140656 
	C256.737183,189.293304 253.690704,190.911606 247.995117,187.562408 
z"/>
<path fill="#73CAE7" opacity="1.000000" stroke="none" 
	d="
M193.496841,338.581360 
	C192.551407,339.780548 191.997681,341.223083 191.087265,341.502228 
	C189.088715,342.114990 185.930374,343.093842 185.036423,342.177002 
	C183.732483,340.839722 182.933395,337.332886 183.802124,335.866577 
	C186.489883,331.329865 189.993591,327.260376 193.330658,323.130859 
	C195.192047,320.827454 198.056351,320.373444 199.764481,322.603363 
	C200.922424,324.115051 201.271271,327.356232 200.429718,329.054932 
	C198.764008,332.417328 196.023163,335.247070 193.496841,338.581360 
z"/>
<path fill="#74C9E7" opacity="1.000000" stroke="none" 
	d="
M316.971161,329.017487 
	C315.212097,327.721924 313.180481,326.915741 312.439270,325.454803 
	C311.466003,323.536560 310.475555,320.339813 311.393585,319.095367 
	C312.399750,317.731445 316.147034,316.887024 317.686096,317.710571 
	C321.733246,319.876282 325.509338,322.785706 328.795898,326.008209 
	C329.959656,327.149292 330.292999,330.712036 329.370270,331.966553 
	C328.434509,333.238892 325.271637,333.775055 323.460785,333.273621 
	C321.197113,332.646759 319.317902,330.631470 316.971161,329.017487 
z"/>
<path fill="#71CEEB" opacity="1.000000" stroke="none" 
	d="
M262.129456,351.764709 
	C261.647919,354.076874 261.657806,356.357605 260.531921,357.645660 
	C259.615417,358.694244 256.835266,359.423645 255.750046,358.795044 
	C250.138443,355.544830 253.148743,349.892029 252.857971,345.296204 
	C252.728470,343.249390 254.366943,340.073517 256.118561,339.153748 
	C259.038147,337.620728 261.642578,339.340729 262.007172,342.884369 
	C262.293335,345.665771 262.106598,348.495789 262.129456,351.764709 
z"/>
<path fill="#7D265F" opacity="1.000000" stroke="none" 
	d="
M270.927795,290.997437 
	C258.340637,299.536652 245.341003,300.473999 232.520264,293.259216 
	C220.060410,286.247498 213.787781,274.928314 214.660583,260.513245 
	C215.555862,245.727081 223.299713,235.206879 236.924042,229.491043 
	C252.492401,222.959671 270.247070,228.933975 279.775665,243.441360 
	C288.696167,257.022980 286.634125,275.945496 274.952423,287.474030 
	C273.770538,288.640350 272.465332,289.681671 270.927795,290.997437 
z"/>
</svg>